<mxfile host="app.diagrams.net" agent="Mozilla/5.0 (Macintosh; Intel Mac OS X 10_15_7) AppleWebKit/537.36 (KHTML, like Gecko) Chrome/130.0.0.0 Safari/537.36" version="24.8.1">
  <diagram name="Page-1" id="edf60f1a-56cd-e834-aa8a-f176f3a09ee4">
    <mxGraphModel dx="1051" dy="784" grid="1" gridSize="10" guides="1" tooltips="1" connect="1" arrows="1" fold="1" page="1" pageScale="1" pageWidth="1100" pageHeight="850" background="#ffffff" math="0" shadow="0">
      <root>
        <mxCell id="0" />
        <mxCell id="1" parent="0" />
        <mxCell id="C-Q3ciUpYbMfR-4Uyct9-64" value="" style="edgeStyle=orthogonalEdgeStyle;rounded=0;orthogonalLoop=1;jettySize=auto;html=1;fontSize=16;" parent="1" source="C-Q3ciUpYbMfR-4Uyct9-5" target="C-Q3ciUpYbMfR-4Uyct9-29" edge="1">
          <mxGeometry relative="1" as="geometry" />
        </mxCell>
        <mxCell id="C-Q3ciUpYbMfR-4Uyct9-5" value="输出" style="whiteSpace=wrap;strokeWidth=2;fontSize=16;" parent="1" vertex="1">
          <mxGeometry x="901.5" y="332" width="100" height="40" as="geometry" />
        </mxCell>
        <mxCell id="C-Q3ciUpYbMfR-4Uyct9-52" value="" style="edgeStyle=orthogonalEdgeStyle;rounded=0;orthogonalLoop=1;jettySize=auto;html=1;fontSize=16;" parent="1" source="C-Q3ciUpYbMfR-4Uyct9-18" target="C-Q3ciUpYbMfR-4Uyct9-19" edge="1">
          <mxGeometry relative="1" as="geometry" />
        </mxCell>
        <mxCell id="C-Q3ciUpYbMfR-4Uyct9-18" value="产品经理" style="ellipse;whiteSpace=wrap;html=1;aspect=fixed;fontSize=16;" parent="1" vertex="1">
          <mxGeometry x="230" y="40" width="80" height="80" as="geometry" />
        </mxCell>
        <mxCell id="C-Q3ciUpYbMfR-4Uyct9-54" value="" style="edgeStyle=orthogonalEdgeStyle;rounded=0;orthogonalLoop=1;jettySize=auto;html=1;fontSize=16;" parent="1" source="C-Q3ciUpYbMfR-4Uyct9-19" target="C-Q3ciUpYbMfR-4Uyct9-20" edge="1">
          <mxGeometry relative="1" as="geometry" />
        </mxCell>
        <mxCell id="C-Q3ciUpYbMfR-4Uyct9-19" value="收集" style="whiteSpace=wrap;strokeWidth=2;fontSize=16;" parent="1" vertex="1">
          <mxGeometry x="472" y="60" width="100" height="40" as="geometry" />
        </mxCell>
        <mxCell id="C-Q3ciUpYbMfR-4Uyct9-55" value="" style="edgeStyle=orthogonalEdgeStyle;rounded=0;orthogonalLoop=1;jettySize=auto;html=1;fontSize=16;" parent="1" source="C-Q3ciUpYbMfR-4Uyct9-20" target="C-Q3ciUpYbMfR-4Uyct9-24" edge="1">
          <mxGeometry relative="1" as="geometry" />
        </mxCell>
        <mxCell id="C-Q3ciUpYbMfR-4Uyct9-20" value="新闻媒体网站" style="shape=parallelogram;perimeter=parallelogramPerimeter;whiteSpace=wrap;html=1;fixedSize=1;fontSize=16;" parent="1" vertex="1">
          <mxGeometry x="462" y="138" width="120" height="60" as="geometry" />
        </mxCell>
        <mxCell id="C-Q3ciUpYbMfR-4Uyct9-90" style="edgeStyle=orthogonalEdgeStyle;rounded=0;orthogonalLoop=1;jettySize=auto;html=1;entryDx=0;entryDy=0;fontSize=16;" parent="1" source="C-Q3ciUpYbMfR-4Uyct9-22" target="C-Q3ciUpYbMfR-4Uyct9-23" edge="1">
          <mxGeometry relative="1" as="geometry">
            <mxPoint x="900" y="160" as="targetPoint" />
          </mxGeometry>
        </mxCell>
        <mxCell id="C-Q3ciUpYbMfR-4Uyct9-22" value="爬虫工程师" style="ellipse;whiteSpace=wrap;html=1;aspect=fixed;fontSize=16;" parent="1" vertex="1">
          <mxGeometry x="935" y="128" width="80" height="80" as="geometry" />
        </mxCell>
        <mxCell id="C-Q3ciUpYbMfR-4Uyct9-53" value="" style="edgeStyle=orthogonalEdgeStyle;rounded=0;orthogonalLoop=1;jettySize=auto;html=1;fontSize=16;" parent="1" source="C-Q3ciUpYbMfR-4Uyct9-23" target="C-Q3ciUpYbMfR-4Uyct9-20" edge="1">
          <mxGeometry relative="1" as="geometry" />
        </mxCell>
        <mxCell id="C-Q3ciUpYbMfR-4Uyct9-23" value="抓取" style="whiteSpace=wrap;strokeWidth=2;fontSize=16;" parent="1" vertex="1">
          <mxGeometry x="698" y="148" width="100" height="40" as="geometry" />
        </mxCell>
        <mxCell id="C-Q3ciUpYbMfR-4Uyct9-56" value="" style="edgeStyle=orthogonalEdgeStyle;rounded=0;orthogonalLoop=1;jettySize=auto;html=1;fontSize=16;" parent="1" source="C-Q3ciUpYbMfR-4Uyct9-24" target="C-Q3ciUpYbMfR-4Uyct9-25" edge="1">
          <mxGeometry relative="1" as="geometry" />
        </mxCell>
        <mxCell id="C-Q3ciUpYbMfR-4Uyct9-24" value="存储" style="whiteSpace=wrap;strokeWidth=2;fontSize=16;" parent="1" vertex="1">
          <mxGeometry x="472" y="239" width="100" height="40" as="geometry" />
        </mxCell>
        <mxCell id="C-Q3ciUpYbMfR-4Uyct9-25" value="Mysql数据库" style="shape=dataStorage;whiteSpace=wrap;html=1;fixedSize=1;fontSize=16;" parent="1" vertex="1">
          <mxGeometry x="280" y="219" width="100" height="80" as="geometry" />
        </mxCell>
        <mxCell id="C-Q3ciUpYbMfR-4Uyct9-59" value="" style="edgeStyle=orthogonalEdgeStyle;rounded=0;orthogonalLoop=1;jettySize=auto;html=1;fontSize=16;" parent="1" source="C-Q3ciUpYbMfR-4Uyct9-26" target="C-Q3ciUpYbMfR-4Uyct9-27" edge="1">
          <mxGeometry relative="1" as="geometry" />
        </mxCell>
        <mxCell id="C-Q3ciUpYbMfR-4Uyct9-60" value="" style="edgeStyle=orthogonalEdgeStyle;rounded=0;orthogonalLoop=1;jettySize=auto;html=1;fontSize=16;" parent="1" source="C-Q3ciUpYbMfR-4Uyct9-26" target="C-Q3ciUpYbMfR-4Uyct9-28" edge="1">
          <mxGeometry relative="1" as="geometry" />
        </mxCell>
        <mxCell id="C-Q3ciUpYbMfR-4Uyct9-93" style="edgeStyle=orthogonalEdgeStyle;rounded=0;orthogonalLoop=1;jettySize=auto;html=1;fontSize=16;" parent="1" source="C-Q3ciUpYbMfR-4Uyct9-26" target="C-Q3ciUpYbMfR-4Uyct9-35" edge="1">
          <mxGeometry relative="1" as="geometry" />
        </mxCell>
        <mxCell id="C-Q3ciUpYbMfR-4Uyct9-99" style="edgeStyle=orthogonalEdgeStyle;rounded=0;orthogonalLoop=1;jettySize=auto;html=1;fontSize=16;" parent="1" source="C-Q3ciUpYbMfR-4Uyct9-26" target="C-Q3ciUpYbMfR-4Uyct9-42" edge="1">
          <mxGeometry relative="1" as="geometry" />
        </mxCell>
        <mxCell id="C-Q3ciUpYbMfR-4Uyct9-26" value="后端开发工程师" style="ellipse;whiteSpace=wrap;html=1;aspect=fixed;fontSize=16;" parent="1" vertex="1">
          <mxGeometry x="290" y="435.5" width="80" height="80" as="geometry" />
        </mxCell>
        <mxCell id="C-Q3ciUpYbMfR-4Uyct9-57" value="" style="edgeStyle=orthogonalEdgeStyle;rounded=0;orthogonalLoop=1;jettySize=auto;html=1;fontSize=16;" parent="1" source="C-Q3ciUpYbMfR-4Uyct9-27" target="C-Q3ciUpYbMfR-4Uyct9-25" edge="1">
          <mxGeometry relative="1" as="geometry" />
        </mxCell>
        <mxCell id="C-Q3ciUpYbMfR-4Uyct9-27" value="读取" style="whiteSpace=wrap;strokeWidth=2;fontSize=16;" parent="1" vertex="1">
          <mxGeometry x="280" y="344.5" width="100" height="40" as="geometry" />
        </mxCell>
        <mxCell id="C-Q3ciUpYbMfR-4Uyct9-61" value="" style="edgeStyle=orthogonalEdgeStyle;rounded=0;orthogonalLoop=1;jettySize=auto;html=1;fontSize=16;" parent="1" source="C-Q3ciUpYbMfR-4Uyct9-28" target="C-Q3ciUpYbMfR-4Uyct9-29" edge="1">
          <mxGeometry relative="1" as="geometry" />
        </mxCell>
        <mxCell id="C-Q3ciUpYbMfR-4Uyct9-65" value="" style="edgeStyle=orthogonalEdgeStyle;rounded=0;orthogonalLoop=1;jettySize=auto;html=1;fontSize=16;" parent="1" source="C-Q3ciUpYbMfR-4Uyct9-28" target="C-Q3ciUpYbMfR-4Uyct9-36" edge="1">
          <mxGeometry relative="1" as="geometry" />
        </mxCell>
        <mxCell id="C-Q3ciUpYbMfR-4Uyct9-28" value="调用" style="whiteSpace=wrap;strokeWidth=2;fontSize=16;" parent="1" vertex="1">
          <mxGeometry x="550" y="455.5" width="100" height="40" as="geometry" />
        </mxCell>
        <mxCell id="C-Q3ciUpYbMfR-4Uyct9-29" value="大模型" style="ellipse;whiteSpace=wrap;html=1;aspect=fixed;fontSize=16;" parent="1" vertex="1">
          <mxGeometry x="733" y="312" width="80" height="80" as="geometry" />
        </mxCell>
        <mxCell id="C-Q3ciUpYbMfR-4Uyct9-62" value="" style="edgeStyle=orthogonalEdgeStyle;rounded=0;orthogonalLoop=1;jettySize=auto;html=1;fontSize=16;" parent="1" source="C-Q3ciUpYbMfR-4Uyct9-30" target="C-Q3ciUpYbMfR-4Uyct9-31" edge="1">
          <mxGeometry relative="1" as="geometry" />
        </mxCell>
        <mxCell id="C-Q3ciUpYbMfR-4Uyct9-30" value="算法工程师" style="ellipse;whiteSpace=wrap;html=1;aspect=fixed;fontSize=16;" parent="1" vertex="1">
          <mxGeometry x="911.5" y="540" width="80" height="80" as="geometry" />
        </mxCell>
        <mxCell id="C-Q3ciUpYbMfR-4Uyct9-63" value="" style="edgeStyle=orthogonalEdgeStyle;rounded=0;orthogonalLoop=1;jettySize=auto;html=1;fontSize=16;" parent="1" source="C-Q3ciUpYbMfR-4Uyct9-31" target="C-Q3ciUpYbMfR-4Uyct9-5" edge="1">
          <mxGeometry relative="1" as="geometry" />
        </mxCell>
        <mxCell id="C-Q3ciUpYbMfR-4Uyct9-31" value="训练" style="whiteSpace=wrap;strokeWidth=2;fontSize=16;" parent="1" vertex="1">
          <mxGeometry x="901.5" y="435.5" width="100" height="40" as="geometry" />
        </mxCell>
        <mxCell id="C-Q3ciUpYbMfR-4Uyct9-67" value="" style="edgeStyle=orthogonalEdgeStyle;rounded=0;orthogonalLoop=1;jettySize=auto;html=1;fontSize=16;" parent="1" source="C-Q3ciUpYbMfR-4Uyct9-32" target="C-Q3ciUpYbMfR-4Uyct9-33" edge="1">
          <mxGeometry relative="1" as="geometry" />
        </mxCell>
        <mxCell id="C-Q3ciUpYbMfR-4Uyct9-32" value="精简概括的内容" style="shape=parallelogram;perimeter=parallelogramPerimeter;whiteSpace=wrap;html=1;fixedSize=1;fontSize=16;" parent="1" vertex="1">
          <mxGeometry x="540" y="660" width="120" height="60" as="geometry" />
        </mxCell>
        <mxCell id="C-Q3ciUpYbMfR-4Uyct9-68" value="" style="edgeStyle=orthogonalEdgeStyle;rounded=0;orthogonalLoop=1;jettySize=auto;html=1;fontSize=16;" parent="1" source="C-Q3ciUpYbMfR-4Uyct9-33" target="C-Q3ciUpYbMfR-4Uyct9-34" edge="1">
          <mxGeometry relative="1" as="geometry" />
        </mxCell>
        <mxCell id="C-Q3ciUpYbMfR-4Uyct9-33" value="存储" style="whiteSpace=wrap;strokeWidth=2;fontSize=16;" parent="1" vertex="1">
          <mxGeometry x="550" y="770" width="100" height="40" as="geometry" />
        </mxCell>
        <mxCell id="C-Q3ciUpYbMfR-4Uyct9-79" value="" style="edgeStyle=orthogonalEdgeStyle;rounded=0;orthogonalLoop=1;jettySize=auto;html=1;fontSize=16;" parent="1" source="C-Q3ciUpYbMfR-4Uyct9-34" target="C-Q3ciUpYbMfR-4Uyct9-71" edge="1">
          <mxGeometry relative="1" as="geometry" />
        </mxCell>
        <mxCell id="C-Q3ciUpYbMfR-4Uyct9-34" value="MeiliSearch数据库" style="shape=dataStorage;whiteSpace=wrap;html=1;fixedSize=1;fontSize=16;" parent="1" vertex="1">
          <mxGeometry x="550" y="870" width="100" height="80" as="geometry" />
        </mxCell>
        <mxCell id="C-Q3ciUpYbMfR-4Uyct9-98" value="" style="edgeStyle=orthogonalEdgeStyle;rounded=0;orthogonalLoop=1;jettySize=auto;html=1;fontSize=16;" parent="1" source="C-Q3ciUpYbMfR-4Uyct9-35" target="C-Q3ciUpYbMfR-4Uyct9-34" edge="1">
          <mxGeometry relative="1" as="geometry" />
        </mxCell>
        <mxCell id="C-Q3ciUpYbMfR-4Uyct9-35" value="读取" style="whiteSpace=wrap;strokeWidth=2;fontSize=16;" parent="1" vertex="1">
          <mxGeometry x="395.5" y="890" width="100" height="40" as="geometry" />
        </mxCell>
        <mxCell id="C-Q3ciUpYbMfR-4Uyct9-66" value="" style="edgeStyle=orthogonalEdgeStyle;rounded=0;orthogonalLoop=1;jettySize=auto;html=1;fontSize=16;" parent="1" source="C-Q3ciUpYbMfR-4Uyct9-36" target="C-Q3ciUpYbMfR-4Uyct9-32" edge="1">
          <mxGeometry relative="1" as="geometry" />
        </mxCell>
        <mxCell id="C-Q3ciUpYbMfR-4Uyct9-36" value="输出" style="whiteSpace=wrap;strokeWidth=2;fontSize=16;" parent="1" vertex="1">
          <mxGeometry x="550" y="560" width="100" height="40" as="geometry" />
        </mxCell>
        <mxCell id="C-Q3ciUpYbMfR-4Uyct9-37" value="API 接口" style="shape=parallelogram;perimeter=parallelogramPerimeter;whiteSpace=wrap;html=1;fixedSize=1;fontSize=16;" parent="1" vertex="1">
          <mxGeometry x="881.5" y="880" width="120" height="60" as="geometry" />
        </mxCell>
        <mxCell id="C-Q3ciUpYbMfR-4Uyct9-74" value="" style="edgeStyle=orthogonalEdgeStyle;rounded=0;orthogonalLoop=1;jettySize=auto;html=1;fontSize=16;" parent="1" source="C-Q3ciUpYbMfR-4Uyct9-38" target="C-Q3ciUpYbMfR-4Uyct9-39" edge="1">
          <mxGeometry relative="1" as="geometry" />
        </mxCell>
        <mxCell id="C-Q3ciUpYbMfR-4Uyct9-76" value="" style="edgeStyle=orthogonalEdgeStyle;rounded=0;orthogonalLoop=1;jettySize=auto;html=1;fontSize=16;" parent="1" source="C-Q3ciUpYbMfR-4Uyct9-38" target="C-Q3ciUpYbMfR-4Uyct9-40" edge="1">
          <mxGeometry relative="1" as="geometry" />
        </mxCell>
        <mxCell id="C-Q3ciUpYbMfR-4Uyct9-38" value="前端开发工程师" style="ellipse;whiteSpace=wrap;html=1;aspect=fixed;fontSize=16;" parent="1" vertex="1">
          <mxGeometry x="901.5" y="1070" width="80" height="80" as="geometry" />
        </mxCell>
        <mxCell id="C-Q3ciUpYbMfR-4Uyct9-75" value="" style="edgeStyle=orthogonalEdgeStyle;rounded=0;orthogonalLoop=1;jettySize=auto;html=1;fontSize=16;" parent="1" source="C-Q3ciUpYbMfR-4Uyct9-39" target="C-Q3ciUpYbMfR-4Uyct9-37" edge="1">
          <mxGeometry relative="1" as="geometry" />
        </mxCell>
        <mxCell id="C-Q3ciUpYbMfR-4Uyct9-39" value="调用" style="whiteSpace=wrap;strokeWidth=2;fontSize=16;" parent="1" vertex="1">
          <mxGeometry x="891.5" y="1000" width="100" height="40" as="geometry" />
        </mxCell>
        <mxCell id="C-Q3ciUpYbMfR-4Uyct9-77" value="" style="edgeStyle=orthogonalEdgeStyle;rounded=0;orthogonalLoop=1;jettySize=auto;html=1;fontSize=16;" parent="1" source="C-Q3ciUpYbMfR-4Uyct9-40" target="C-Q3ciUpYbMfR-4Uyct9-41" edge="1">
          <mxGeometry relative="1" as="geometry" />
        </mxCell>
        <mxCell id="C-Q3ciUpYbMfR-4Uyct9-40" value="开发" style="whiteSpace=wrap;strokeWidth=2;fontSize=16;" parent="1" vertex="1">
          <mxGeometry x="736.5" y="1090" width="100" height="40" as="geometry" />
        </mxCell>
        <mxCell id="C-Q3ciUpYbMfR-4Uyct9-87" value="" style="edgeStyle=orthogonalEdgeStyle;rounded=0;orthogonalLoop=1;jettySize=auto;html=1;fontSize=16;" parent="1" source="C-Q3ciUpYbMfR-4Uyct9-41" target="C-Q3ciUpYbMfR-4Uyct9-86" edge="1">
          <mxGeometry relative="1" as="geometry" />
        </mxCell>
        <mxCell id="C-Q3ciUpYbMfR-4Uyct9-41" value="自适应&lt;br style=&quot;font-size: 16px;&quot;&gt;新闻阅读系统" style="shape=parallelogram;perimeter=parallelogramPerimeter;whiteSpace=wrap;html=1;fixedSize=1;fontSize=16;" parent="1" vertex="1">
          <mxGeometry x="550" y="1080" width="120" height="60" as="geometry" />
        </mxCell>
        <mxCell id="C-Q3ciUpYbMfR-4Uyct9-81" value="" style="edgeStyle=orthogonalEdgeStyle;rounded=0;orthogonalLoop=1;jettySize=auto;html=1;fontSize=16;" parent="1" source="C-Q3ciUpYbMfR-4Uyct9-42" target="C-Q3ciUpYbMfR-4Uyct9-41" edge="1">
          <mxGeometry relative="1" as="geometry" />
        </mxCell>
        <mxCell id="C-Q3ciUpYbMfR-4Uyct9-42" value="打包" style="whiteSpace=wrap;strokeWidth=2;fontSize=16;" parent="1" vertex="1">
          <mxGeometry x="280" y="1090" width="100" height="40" as="geometry" />
        </mxCell>
        <mxCell id="C-Q3ciUpYbMfR-4Uyct9-100" value="" style="edgeStyle=orthogonalEdgeStyle;rounded=0;orthogonalLoop=1;jettySize=auto;html=1;fontSize=16;" parent="1" source="C-Q3ciUpYbMfR-4Uyct9-47" target="C-Q3ciUpYbMfR-4Uyct9-48" edge="1">
          <mxGeometry relative="1" as="geometry" />
        </mxCell>
        <mxCell id="C-Q3ciUpYbMfR-4Uyct9-47" value="用户" style="ellipse;whiteSpace=wrap;html=1;aspect=fixed;fontSize=16;" parent="1" vertex="1">
          <mxGeometry x="570" y="1584" width="80" height="80" as="geometry" />
        </mxCell>
        <mxCell id="C-Q3ciUpYbMfR-4Uyct9-101" value="" style="edgeStyle=orthogonalEdgeStyle;rounded=0;orthogonalLoop=1;jettySize=auto;html=1;fontSize=16;" parent="1" source="C-Q3ciUpYbMfR-4Uyct9-48" target="C-Q3ciUpYbMfR-4Uyct9-49" edge="1">
          <mxGeometry relative="1" as="geometry" />
        </mxCell>
        <mxCell id="C-Q3ciUpYbMfR-4Uyct9-48" value="登录" style="whiteSpace=wrap;strokeWidth=2;fontSize=16;" parent="1" vertex="1">
          <mxGeometry x="560" y="1510" width="100" height="40" as="geometry" />
        </mxCell>
        <mxCell id="C-Q3ciUpYbMfR-4Uyct9-102" style="edgeStyle=orthogonalEdgeStyle;rounded=0;orthogonalLoop=1;jettySize=auto;html=1;fontSize=16;" parent="1" source="C-Q3ciUpYbMfR-4Uyct9-49" edge="1">
          <mxGeometry relative="1" as="geometry">
            <mxPoint x="340" y="1370" as="targetPoint" />
          </mxGeometry>
        </mxCell>
        <mxCell id="C-Q3ciUpYbMfR-4Uyct9-105" style="edgeStyle=orthogonalEdgeStyle;rounded=0;orthogonalLoop=1;jettySize=auto;html=1;fontSize=16;" parent="1" source="C-Q3ciUpYbMfR-4Uyct9-49" edge="1">
          <mxGeometry relative="1" as="geometry">
            <mxPoint x="890" y="1360" as="targetPoint" />
          </mxGeometry>
        </mxCell>
        <mxCell id="C-Q3ciUpYbMfR-4Uyct9-116" style="edgeStyle=orthogonalEdgeStyle;rounded=0;orthogonalLoop=1;jettySize=auto;html=1;fontSize=16;" parent="1" source="C-Q3ciUpYbMfR-4Uyct9-49" edge="1">
          <mxGeometry relative="1" as="geometry">
            <mxPoint x="460" y="1370" as="targetPoint" />
          </mxGeometry>
        </mxCell>
        <mxCell id="C-Q3ciUpYbMfR-4Uyct9-49" value="阅读" style="whiteSpace=wrap;strokeWidth=2;fontSize=16;" parent="1" vertex="1">
          <mxGeometry x="560" y="1430" width="100" height="40" as="geometry" />
        </mxCell>
        <mxCell id="C-Q3ciUpYbMfR-4Uyct9-73" value="" style="edgeStyle=orthogonalEdgeStyle;rounded=0;orthogonalLoop=1;jettySize=auto;html=1;fontSize=16;" parent="1" source="C-Q3ciUpYbMfR-4Uyct9-71" target="C-Q3ciUpYbMfR-4Uyct9-37" edge="1">
          <mxGeometry relative="1" as="geometry" />
        </mxCell>
        <mxCell id="C-Q3ciUpYbMfR-4Uyct9-71" value="输出" style="whiteSpace=wrap;strokeWidth=2;fontSize=16;" parent="1" vertex="1">
          <mxGeometry x="723" y="890" width="100" height="40" as="geometry" />
        </mxCell>
        <mxCell id="C-Q3ciUpYbMfR-4Uyct9-110" style="edgeStyle=orthogonalEdgeStyle;rounded=0;orthogonalLoop=1;jettySize=auto;html=1;fontSize=16;" parent="1" source="C-Q3ciUpYbMfR-4Uyct9-86" target="C-Q3ciUpYbMfR-4Uyct9-94" edge="1">
          <mxGeometry relative="1" as="geometry" />
        </mxCell>
        <mxCell id="C-Q3ciUpYbMfR-4Uyct9-111" style="edgeStyle=orthogonalEdgeStyle;rounded=0;orthogonalLoop=1;jettySize=auto;html=1;entryDx=0;entryDy=0;fontSize=16;" parent="1" source="C-Q3ciUpYbMfR-4Uyct9-86" target="C-Q3ciUpYbMfR-4Uyct9-96" edge="1">
          <mxGeometry relative="1" as="geometry" />
        </mxCell>
        <mxCell id="C-Q3ciUpYbMfR-4Uyct9-113" style="edgeStyle=orthogonalEdgeStyle;rounded=0;orthogonalLoop=1;jettySize=auto;html=1;entryDx=0;entryDy=0;fontSize=16;" parent="1" source="C-Q3ciUpYbMfR-4Uyct9-86" target="C-Q3ciUpYbMfR-4Uyct9-97" edge="1">
          <mxGeometry relative="1" as="geometry" />
        </mxCell>
        <mxCell id="C-Q3ciUpYbMfR-4Uyct9-115" style="edgeStyle=orthogonalEdgeStyle;rounded=0;orthogonalLoop=1;jettySize=auto;html=1;fontSize=16;" parent="1" source="C-Q3ciUpYbMfR-4Uyct9-86" target="C-Q3ciUpYbMfR-4Uyct9-114" edge="1">
          <mxGeometry relative="1" as="geometry" />
        </mxCell>
        <mxCell id="C-Q3ciUpYbMfR-4Uyct9-86" value="输出" style="whiteSpace=wrap;strokeWidth=2;fontSize=16;" parent="1" vertex="1">
          <mxGeometry x="560" y="1189" width="100" height="40" as="geometry" />
        </mxCell>
        <mxCell id="C-Q3ciUpYbMfR-4Uyct9-94" value="桌面端应用" style="shape=parallelogram;perimeter=parallelogramPerimeter;whiteSpace=wrap;html=1;fixedSize=1;fontSize=16;" parent="1" vertex="1">
          <mxGeometry x="257" y="1299" width="120" height="60" as="geometry" />
        </mxCell>
        <mxCell id="C-Q3ciUpYbMfR-4Uyct9-95" value="手机web端" style="shape=parallelogram;perimeter=parallelogramPerimeter;whiteSpace=wrap;html=1;fixedSize=1;fontSize=16;" parent="1" vertex="1">
          <mxGeometry x="550" y="1300" width="120" height="60" as="geometry" />
        </mxCell>
        <mxCell id="C-Q3ciUpYbMfR-4Uyct9-96" value="小程序" style="shape=parallelogram;perimeter=parallelogramPerimeter;whiteSpace=wrap;html=1;fixedSize=1;fontSize=16;" parent="1" vertex="1">
          <mxGeometry x="836.5" y="1299" width="120" height="60" as="geometry" />
        </mxCell>
        <mxCell id="C-Q3ciUpYbMfR-4Uyct9-97" value="网页端" style="shape=parallelogram;perimeter=parallelogramPerimeter;whiteSpace=wrap;html=1;fixedSize=1;fontSize=16;" parent="1" vertex="1">
          <mxGeometry x="697" y="1301" width="120" height="60" as="geometry" />
        </mxCell>
        <mxCell id="C-Q3ciUpYbMfR-4Uyct9-103" style="edgeStyle=orthogonalEdgeStyle;rounded=0;orthogonalLoop=1;jettySize=auto;html=1;entryDx=0;entryDy=0;entryPerimeter=0;fontSize=16;" parent="1" source="C-Q3ciUpYbMfR-4Uyct9-49" target="C-Q3ciUpYbMfR-4Uyct9-95" edge="1">
          <mxGeometry relative="1" as="geometry" />
        </mxCell>
        <mxCell id="C-Q3ciUpYbMfR-4Uyct9-104" style="edgeStyle=orthogonalEdgeStyle;rounded=0;orthogonalLoop=1;jettySize=auto;html=1;entryDx=0;entryDy=0;entryPerimeter=0;fontSize=16;" parent="1" source="C-Q3ciUpYbMfR-4Uyct9-49" target="C-Q3ciUpYbMfR-4Uyct9-97" edge="1">
          <mxGeometry relative="1" as="geometry" />
        </mxCell>
        <mxCell id="C-Q3ciUpYbMfR-4Uyct9-112" style="edgeStyle=orthogonalEdgeStyle;rounded=0;orthogonalLoop=1;jettySize=auto;html=1;entryDx=0;entryDy=0;entryPerimeter=0;fontSize=16;" parent="1" source="C-Q3ciUpYbMfR-4Uyct9-86" target="C-Q3ciUpYbMfR-4Uyct9-95" edge="1">
          <mxGeometry relative="1" as="geometry" />
        </mxCell>
        <mxCell id="C-Q3ciUpYbMfR-4Uyct9-114" value="移动端app" style="shape=parallelogram;perimeter=parallelogramPerimeter;whiteSpace=wrap;html=1;fixedSize=1;fontSize=16;" parent="1" vertex="1">
          <mxGeometry x="402" y="1299" width="120" height="60" as="geometry" />
        </mxCell>
      </root>
    </mxGraphModel>
  </diagram>
</mxfile>
